<svg xmlns="http://www.w3.org/2000/svg">
    <symbol id="logo" viewBox="0 0 460 440">
        <path d="M452.39,117.72c-7-10.15-17-15.36-20.77-17.39C373.8,69.52,318.12,35.81,258.79,7.07A63.39,63.39,0,0,0,230.71,0C216.6,0,206,5.16,201.62,7.32c-59.21,29-115.37,62.17-173.24,93-3.81,2-13.77,7.24-20.77,17.39A43.67,43.67,0,0,0,0,141.47V308.82c0,17,10.82,32.65,28.38,41.14l173.24,83.68a66.5,66.5,0,0,0,56.76,0L431.62,350c17.56-8.49,28.38-24.17,28.38-41.14V141.47A43.65,43.65,0,0,0,452.39,117.72ZM236.11,294.63q0,4.35-2,6.3t-6.52,1.94h-36.5q-4.5,0-6.51-1.94t-2-6.3V214.09l-14,24.94a13.92,13.92,0,0,1-5.1,5.61,14.73,14.73,0,0,1-7.46,1.72h-9.48a14.77,14.77,0,0,1-7.47-1.72A13.9,13.9,0,0,1,134,239l-14-24.94v80.54q0,4.35-2,6.3t-6.52,1.94H76.14c-3,0-5.18-.65-6.52-1.94s-2-3.4-2-6.3V146.37q0-4.35,2-6.29c1.34-1.3,3.52-2,6.52-2H114.3a11.48,11.48,0,0,1,6.28,1.6A15.18,15.18,0,0,1,125.2,145l21.33,37.29a18.62,18.62,0,0,0,2,3,2.89,2.89,0,0,0,2.25.91h2.14a2.9,2.9,0,0,0,2.25-.91,18.62,18.62,0,0,0,2-3L178.29,145a15.18,15.18,0,0,1,4.62-5.27,11.46,11.46,0,0,1,6.28-1.6h38.39q4.5,0,6.52,2t2,6.29ZM397,262.6q0,19.45-13.16,29.86T348,302.87H273.09q-4.51,0-6.52-1.94t-2-6.3V267.86q0-4.33,2-6.29t6.52-1.94h63.75a5.54,5.54,0,0,0,4.62-1.95A7.29,7.29,0,0,0,343,253q0-3.88-1.54-5.72a6.39,6.39,0,0,0-4.62-2.06l-35.55-4.8q-16.59-2.29-26.66-10.53t-10.08-27.45v-24q0-19.44,13-29.86t36-10.41H380c3,0,5.18.65,6.52,2s2,3.39,2,6.29V173.6c0,2.9-.67,5-2,6.29s-3.52,1.94-6.52,1.94H324.75a5.89,5.89,0,0,0-4.74,1.95,7.31,7.31,0,0,0-1.66,4.92,7.74,7.74,0,0,0,1.66,5,6.4,6.4,0,0,0,4.74,2.29l35.31,4.57q16.59,2.29,26.79,10.53T397,238.58Z" />
    </symbol>
    <symbol id="about" viewBox="0 0 393.76 393.76">
        <path d="M196.88,393.76h0A196,196,0,0,1,85.34,359.13a8.2,8.2,0,1,1,9.3-13.51A180.5,180.5,0,1,0,283.87,38.71s0,0,0,0a8.2,8.2,0,1,1,7.92-14.36A196.78,196.78,0,0,1,360.14,307a197.44,197.44,0,0,1-86.62,71.33,195.78,195.78,0,0,1-37,11.46,198,198,0,0,1-39.68,4ZM59,333.85a8.23,8.23,0,0,1-6-2.6,8.22,8.22,0,0,1,6-13.81,8.21,8.21,0,1,1,0,16.41ZM34.45,301.11h0a8.26,8.26,0,0,1-7.06-4A196.16,196.16,0,0,1,0,196.88,196.66,196.66,0,0,1,196.88,0c4.45,0,9,.16,13.42.45a8.2,8.2,0,0,1-.54,16.39l-.56,0c-4.07-.27-8.21-.41-12.32-.41A180.51,180.51,0,0,0,41.5,288.73h0a8.11,8.11,0,0,1,1.14,4.16,8.19,8.19,0,0,1-8.18,8.21ZM250,24a7.93,7.93,0,0,1-2.31-.34A8.17,8.17,0,1,1,250,24Z" />
        <path d="M196.88,344.53a147.69,147.69,0,0,1-144.7-118.1,8.2,8.2,0,1,1,16.08-3.27c12.36,60.82,66.44,105,128.59,105h0a131.26,131.26,0,1,0,0-262.51h0A130.81,130.81,0,0,0,75.27,147.4a8.2,8.2,0,0,1-15.2-6.18A147.6,147.6,0,0,1,279.44,74.43a148.39,148.39,0,0,1,39.88,39.89,147.49,147.49,0,0,1,0,165.11,148.17,148.17,0,0,1-39.88,39.88,147.06,147.06,0,0,1-82.56,25.22ZM58,192.2a6.44,6.44,0,0,1-.76,0,8.2,8.2,0,0,1-4.77-14.24A8.2,8.2,0,1,1,58,192.2Z" />
        <path d="M178.59,221.85a59.75,59.75,0,0,1,.57-8.41,29.4,29.4,0,0,1,2.2-7.74,25.24,25.24,0,0,1,4.59-7,29.44,29.44,0,0,1,7.93-5.92c1.66-.89,3.88-2.07,6.69-3.54a58.52,58.52,0,0,0,8-5.06,34.52,34.52,0,0,0,6.68-6.6,13.31,13.31,0,0,0,2.87-8.31,11.84,11.84,0,0,0-4.49-9.85,16.39,16.39,0,0,0-10.41-3.53,16,16,0,0,0-6.89,1.43,22.43,22.43,0,0,0-5.35,3.44,27.85,27.85,0,0,0-4.11,4.49l0,0a5.47,5.47,0,0,1-7.54,1.26l-11.41-8a5.43,5.43,0,0,1-1.64-7.14,37.88,37.88,0,0,1,13.55-13.71,46.33,46.33,0,0,1,24.37-6.5,52,52,0,0,1,14.52,2.1,38.46,38.46,0,0,1,13.1,6.69,34.44,34.44,0,0,1,9.46,11.85q3.63,7.26,3.63,17.59,0,10.89-4.59,18.25a41.25,41.25,0,0,1-13.38,12.9,80.8,80.8,0,0,1-8.12,4.78,66.47,66.47,0,0,0-7.46,4.4,24.13,24.13,0,0,0-5.54,5.16,10.32,10.32,0,0,0-1.65,3.15,5.55,5.55,0,0,1-5.34,3.73H178.59Zm.57,41.36V245.46a5.47,5.47,0,0,1,5.46-5.46h14.12a5.47,5.47,0,0,1,5.46,5.46v17.75a5.46,5.46,0,0,1-5.46,5.46H184.62A5.46,5.46,0,0,1,179.16,263.21Z" />
    </symbol>
    <symbol id="resume" viewBox="0 0 373.86 444.42">
        <path d="M156.52,95.59a35.79,35.79,0,1,1-35.79-35.78,35.79,35.79,0,0,1,35.79,35.78" />
        <path d="M62.44,203.62H179a4.25,4.25,0,0,0,4.26-4.25v-2.58a55.5,55.5,0,0,0-55.45-55.44H113.63a55.48,55.48,0,0,0-55.44,55.44v2.58a4.25,4.25,0,0,0,4.25,4.25Z" />
        <path d="M373.86,67.2A67.21,67.21,0,0,0,306.65,0H67.2A67.19,67.19,0,0,0,0,67.2v310a67.19,67.19,0,0,0,67.2,67.2H306.65a67.21,67.21,0,0,0,67.21-67.2Zm-22.4,310h0a44.79,44.79,0,0,1-44.8,44.8H67.21a44.81,44.81,0,0,1-44.81-44.8V67.2A44.81,44.81,0,0,1,67.21,22.4H306.66a44.79,44.79,0,0,1,44.8,44.8Z" />
        <path d="M313.77,102.87h-96.6a11.2,11.2,0,1,0,0,22.4h96.6a11.2,11.2,0,1,0,0-22.4Z" />
        <path d="M313.77,170.07h-96.6a11.2,11.2,0,1,0,0,22.4h96.6a11.2,11.2,0,1,0,0-22.4Z" />
        <path d="M313.77,270.87H66a11.2,11.2,0,0,0,0,22.4h247.8a11.2,11.2,0,1,0,0-22.4Z" />
        <path d="M313.77,338.07H66a11.2,11.2,0,1,0,0,22.4h247.8a11.2,11.2,0,1,0,0-22.4Z" />
    </symbol>
    <symbol id="projects" viewBox="0 0 518 532">
        <path d="M497.28,411.6h-23V381.36a71.23,71.23,0,0,0-71.12-71.12H275.52V240.8a16.24,16.24,0,0,0-32.48,0v69.44H115.36a71.22,71.22,0,0,0-71.12,71.12V411.6h-23A21.27,21.27,0,0,0,0,432.88v77.84A21.27,21.27,0,0,0,21.28,532H99.12a21.27,21.27,0,0,0,21.28-21.28V432.87a21.27,21.27,0,0,0-21.28-21.28h-23V381.35a38.72,38.72,0,0,1,38.64-38.64H242.48V411.6h-22.4a21.27,21.27,0,0,0-21.28,21.28v77.84A21.27,21.27,0,0,0,220.08,532h78.4a21.27,21.27,0,0,0,21.28-21.28V432.87a21.27,21.27,0,0,0-21.28-21.28h-23V342.71H403.2a38.72,38.72,0,0,1,38.64,38.64V411.6h-23a21.27,21.27,0,0,0-21.28,21.28v77.84A21.27,21.27,0,0,0,418.88,532h77.84A21.27,21.27,0,0,0,518,510.72V432.87c0-11.75-9.52-21.27-20.72-21.27Z" />
        <path d="M171.36,164.08,247,198.8l.56-.56V90.16L168,53.76v103.6a6,6,0,0,0,3.36,6.72Z" />
        <path d="M259.28,70,336,35.28V34.16L262.07.56a7.28,7.28,0,0,0-5.6,0l-73.92,33.6v1.12Z" />
        <path d="M271,90.72V198.24l1.12,1.68-.56-1.68,75.6-34.72a6.74,6.74,0,0,0,3.92-5.6V54.32l-.56-.56Z" />
    </symbol>
    <symbol id="contact" viewBox="0 0 26 26">
        <path d="M24.4970703,19.2363281c-0.4033203-0.6582031-1.0292969-1.4248047-1.7646484-2.1591797  c-0.5322266-0.5322266-2.359375-2.2675781-3.5341797-2.2675781c-0.3769531,0-0.6162109,0.1611328-0.75,0.2949219  l-1.5644531,1.5634766c-0.0263672,0.0263672-0.1103516,0.0566406-0.2617188,0.0566406  c-0.8681641,0-2.7089844-0.9609375-4.5478516-2.7988281c-2.4521484-2.453125-3.0419922-4.5097656-2.7421875-4.8095703  l1.5625-1.5634766c0.1347656-0.1347656,0.2958984-0.3740234,0.2958984-0.75  c0.0009766-1.1757813-1.7353516-3.0029297-2.2675781-3.5351563C8.3916016,2.7353516,6.5654297,1,5.3886719,1  c-0.3759766,0-0.6152344,0.1601563-0.75,0.2949219L1.5107422,4.4228516  C0.5869141,5.3457031,0.9238281,7.1513672,2.5126953,9.7890625C3.8916016,12.078125,6.0742188,14.7617188,8.65625,17.34375  C13.2363281,21.9238281,17.8740234,25.0009766,20.1962891,25c0.578125,0,1.0419922-0.171875,1.3808594-0.5107422  l3.1279297-3.1279297C25.3818359,20.6845703,24.7158203,19.5947266,24.4970703,19.2363281z M20.5166016,23.4287109  C20.4814453,23.4628906,20.3798828,23.5,20.1962891,23.5c-1.5810547,0-5.7910156-2.5292969-10.4794922-7.2167969  c-2.4990234-2.4990234-4.6005859-5.0800781-5.9189453-7.2685547C2.3125,6.5498047,2.4521484,5.6025391,2.5712891,5.4833984  L5.515625,2.5390625C5.8994141,2.6875,6.7890625,3.2539063,7.8623047,4.328125s1.640625,1.9628906,1.7890625,2.3466797  L8.2714844,8.0556641c-1.4384766,1.4384766,0.4130859,4.6005859,2.7421875,6.9306641  c1.9980469,1.9980469,4.1474609,3.2382813,5.6083984,3.2382813c0.6826172,0,1.0957031-0.2695313,1.3222656-0.4960938  l1.3808594-1.3798828c0.3837891,0.1484375,1.2724609,0.7158203,2.3466797,1.7890625  c1.0732422,1.0732422,1.640625,1.9628906,1.7890625,2.3466797L20.5166016,23.4287109z"/>
    </symbol>
	<symbol id="linkedIn" viewBox="0 0 24 24">
		<path d="M19 0h-14c-2.761 0-5 2.239-5 5v14c0 2.761 2.239 5 5 5h14c2.762 0 5-2.239 5-5v-14c0-2.761-2.238-5-5-5zm-11 19h-3v-11h3v11zm-1.5-12.268c-.966 0-1.75-.79-1.75-1.764s.784-1.764 1.75-1.764 1.75.79 1.75 1.764-.783 1.764-1.75 1.764zm13.5 12.268h-3v-5.604c0-3.368-4-3.113-4 0v5.604h-3v-11h3v1.765c1.396-2.586 7-2.777 7 2.476v6.759z" />
	</symbol>

    <symbol id="stackOverflow" viewBox="0 0 120 120">
        <path d="M84.4 93.8V70.6h7.7v30.9H22.6V70.6h7.7v23.2z" />
        <path d="M38.8 68.4l37.8 7.9 1.6-7.6-37.8-7.9-1.6 7.6zm5-18l35 16.3 3.2-7-35-16.4-3.2 7.1zm9.7-17.2l29.7 24.7 4.9-5.9-29.7-24.7-4.9 5.9zm19.2-18.3l-6.2 4.6 23 31 6.2-4.6-23-31zM38 86h38.6v-7.7H38V86z" />    
    </symbol>
    <symbol id="gitHub" viewBox="0 0 24 24">
        <path d="M12 0c-6.626 0-12 5.373-12 12 0 5.302 3.438 9.8 8.207 11.387.599.111.793-.261.793-.577v-2.234c-3.338.726-4.033-1.416-4.033-1.416-.546-1.387-1.333-1.756-1.333-1.756-1.089-.745.083-.729.083-.729 1.205.084 1.839 1.237 1.839 1.237 1.07 1.834 2.807 1.304 3.492.997.107-.775.418-1.305.762-1.604-2.665-.305-5.467-1.334-5.467-5.931 0-1.311.469-2.381 1.236-3.221-.124-.303-.535-1.524.117-3.176 0 0 1.008-.322 3.301 1.23.957-.266 1.983-.399 3.003-.404 1.02.005 2.047.138 3.006.404 2.291-1.552 3.297-1.23 3.297-1.23.653 1.653.242 2.874.118 3.176.77.84 1.235 1.911 1.235 3.221 0 4.609-2.807 5.624-5.479 5.921.43.372.823 1.102.823 2.222v3.293c0 .319.192.694.801.576 4.765-1.589 8.199-6.086 8.199-11.386 0-6.627-5.373-12-12-12z"/>
    </symbol>
</svg>
