<svg id="top" xmlns="http://www.w3.org/2000/svg" viewBox="0 0 437.42 464.1" width="360" height="360" style="background:#080808;width:300px;margin:50px auto;overflow:hidden">
	<path fill="#fff" class="top" d="M437.41,119.85a29.85,29.85,0,0,0-16.1-27.3L228.61,2.25a22.9,22.9,0,0,0-19.8,0L16.11,92.55A29.64,29.64,0,0,0,0,119.85Z" />
	<path fill="#fff" class="center" d="M2,133.84h433.4a2.21,2.21,0,0,1,2,2.37V327.29a2.22,2.22,0,0,1-2,2.37H2a2.22,2.22,0,0,1-2-2.37V136.21a2.21,2.21,0,0,1,2-2.37" />
	<path fill="#fff" class="down" d="M0,344.25a29.85,29.85,0,0,0,16.1,27.3l192.7,90.3a22.91,22.91,0,0,0,19.8,0l192.7-90.3a34.94,34.94,0,0,0,16.1-27.3Z" />
	<g>
		<path fill="none" class="n1_1" stroke="#080808" stroke-width="5" stroke-linecap="round" stroke-linejoin="round" d="M29.31,219.15H15.11a3.67,3.67,0,0,1-2.6-.8,3.67,3.67,0,0,1-.8-2.6v-61.6a3.67,3.67,0,0,1,.8-2.6,3.67,3.67,0,0,1,2.6-.8h15.3a3.9,3.9,0,0,1,2.5.7,6,6,0,0,1,1.9,2.2l8.5,15.5a4.82,4.82,0,0,0,.8,1.2,1,1,0,0,0,.9.4h.9a1,1,0,0,0,.9-.4c.2-.3.5-.7.8-1.2l8.5-15.5a7,7,0,0,1,1.9-2.2,4.9,4.9,0,0,1,2.5-.7h15.4a2.91,2.91,0,0,1,3.4,3.4v61.6a2.91,2.91,0,0,1-3.4,3.4H61.21a2.91,2.91,0,0,1-3.4-3.4v-33.4l-5.6,10.4a5.82,5.82,0,0,1-2,2.3,5.56,5.56,0,0,1-3,.7h-3.8a5.56,5.56,0,0,1-3-.7,5.09,5.09,0,0,1-2-2.3l-5.6-10.4v33.4a3.67,3.67,0,0,1-.8,2.6A4.14,4.14,0,0,1,29.31,219.15Z" />
		<path fill="none" class="n1_2" stroke="#080808" stroke-width="5" stroke-linecap="round" stroke-linejoin="round" d="M150.31,201.15a21.83,21.83,0,0,1-1.3,7.9,14.16,14.16,0,0,1-4.6,6.1,23.48,23.48,0,0,1-9,3.9,59.57,59.57,0,0,1-14.6,1.4,64.93,64.93,0,0,1-14.6-1.4,26.72,26.72,0,0,1-9.1-3.9,13.6,13.6,0,0,1-4.6-6.1,22.2,22.2,0,0,1-1.3-7.9v-32.4a21.83,21.83,0,0,1,1.3-7.9,14.16,14.16,0,0,1,4.6-6.1,24.88,24.88,0,0,1,9.1-4,60.1,60.1,0,0,1,14.6-1.4,65.56,65.56,0,0,1,14.6,1.4,23.5,23.5,0,0,1,9,4,14.16,14.16,0,0,1,4.6,6.1,21.83,21.83,0,0,1,1.3,7.9Zm-37.4-3.4a4.31,4.31,0,0,0,1.4,3.2c.9.9,3.1,1.3,6.6,1.3s5.6-.4,6.6-1.3a4,4,0,0,0,1.4-3.2v-25.6a4.26,4.26,0,0,0-1.4-3.1c-.9-.9-3.1-1.3-6.6-1.3s-5.6.4-6.6,1.3a3.92,3.92,0,0,0-1.4,3.1Z" />
		<path fill="none" class="n1_3" stroke="#080808" stroke-width="5" stroke-linecap="round" stroke-linejoin="round" d="M209.91,219.15h-44.1a2.91,2.91,0,0,1-3.4-3.4v-61.6a2.91,2.91,0,0,1,3.4-3.4h44.1a2.91,2.91,0,0,1,3.4,3.4v11.1a2.91,2.91,0,0,1-3.4,3.4h-26.2V176h18.5a2.91,2.91,0,0,1,3.4,3.4v10.2a2.91,2.91,0,0,1-3.4,3.4h-18.5v8.2h26.2a2.91,2.91,0,0,1,3.4,3.4v11.1a3.67,3.67,0,0,1-.8,2.6A3.27,3.27,0,0,1,209.91,219.15Z" />
		<path fill="none" class="n1_4" stroke="#080808" stroke-width="5" stroke-linecap="round" stroke-linejoin="round" d="M242.11,219.15h-14.2a2.91,2.91,0,0,1-3.4-3.4v-61.6a2.91,2.91,0,0,1,3.4-3.4h15.3a3.9,3.9,0,0,1,2.5.7,6,6,0,0,1,1.9,2.2l8.6,15.5a4.82,4.82,0,0,0,.8,1.2,1,1,0,0,0,.9.4h.9a1,1,0,0,0,.9-.4c.2-.3.5-.7.8-1.2l8.5-15.5a7,7,0,0,1,1.9-2.2,4.9,4.9,0,0,1,2.5-.7h15.4a2.91,2.91,0,0,1,3.4,3.4v61.6a2.91,2.91,0,0,1-3.4,3.4H274a2.91,2.91,0,0,1-3.4-3.4v-33.4l-5.6,10.4a5.82,5.82,0,0,1-2,2.3,5.56,5.56,0,0,1-3,.7h-3.8a5.56,5.56,0,0,1-3-.7,5.09,5.09,0,0,1-2-2.3l-5.6-10.4v33.4a3.67,3.67,0,0,1-.8,2.6A4.14,4.14,0,0,1,242.11,219.15Z" />
		<path fill="none" class="n1_5" stroke="#080808" stroke-width="5" stroke-linecap="round" stroke-linejoin="round" d="M352.71,219.15h-44.1a2.91,2.91,0,0,1-3.4-3.4v-61.6a2.91,2.91,0,0,1,3.4-3.4h44.1a2.91,2.91,0,0,1,3.4,3.4v11.1a2.91,2.91,0,0,1-3.4,3.4h-26.2V176H345a2.91,2.91,0,0,1,3.4,3.4v10.2A2.91,2.91,0,0,1,345,193h-18.5v8.2h26.2a2.91,2.91,0,0,1,3.4,3.4v11.1a3.67,3.67,0,0,1-.8,2.6A3.42,3.42,0,0,1,352.71,219.15Z" />
		<path fill="none" class="n1_6" stroke="#080808" stroke-width="5" stroke-linecap="round" stroke-linejoin="round" d="M385,219.15h-14.3a2.91,2.91,0,0,1-3.4-3.4v-61.6a2.91,2.91,0,0,1,3.4-3.4h9.9a7.45,7.45,0,0,1,3.1.6,6.5,6.5,0,0,1,2.5,2l18.4,21.1v-20.2a2.91,2.91,0,0,1,3.4-3.4h14.3a2.91,2.91,0,0,1,3.4,3.4v61.6a2.91,2.91,0,0,1-3.4,3.4H408a2.91,2.91,0,0,1-3.4-3.4v-11.8l-16.2-19.7v31.4a3.67,3.67,0,0,1-.8,2.6A3.84,3.84,0,0,1,385,219.15Z" />
	</g>
	<g>
		<path fill="none" class="n2_1" stroke="#080808" stroke-width="5" stroke-linecap="round" stroke-linejoin="round" d="M118.51,314.45H86.91a3.22,3.22,0,0,1-3.7-3.7v-11.7a3.22,3.22,0,0,1,3.7-3.7h26.9a2.27,2.27,0,0,0,1.9-.8,3.72,3.72,0,0,0,.7-2,3.56,3.56,0,0,0-.7-2.5,2.85,2.85,0,0,0-1.9-.9l-15-2.1a22.36,22.36,0,0,1-11.3-4.6c-2.8-2.4-4.3-6.4-4.3-12v-10.4c0-5.7,1.8-10,5.5-13s8.7-4.5,15.2-4.5h28a4.25,4.25,0,0,1,2.8.8,3.77,3.77,0,0,1,.9,2.8v11.9a3.1,3.1,0,0,1-3.7,3.6h-23.3a2.38,2.38,0,0,0-2,.9,3.14,3.14,0,0,0-.7,2.1,3.23,3.23,0,0,0,.7,2.2,2.77,2.77,0,0,0,2,1l14.9,2a22.36,22.36,0,0,1,11.3,4.6c2.9,2.4,4.3,6.4,4.3,12V297c0,5.7-1.9,10-5.5,13.1C129.91,313,124.91,314.45,118.51,314.45Z" />
		<path fill="none" class="n2_2" stroke="#080808" stroke-width="5" stroke-linecap="round" stroke-linejoin="round" d="M174.51,310.85a4.25,4.25,0,0,1-.8,2.8,3.77,3.77,0,0,1-2.8.9h-14.7a3.22,3.22,0,0,1-3.7-3.7v-26.4a26.67,26.67,0,0,1,1-6.9,76.77,76.77,0,0,1,2.9-9.1l8.7-22.7a4.45,4.45,0,0,1,1.9-2.5,6.18,6.18,0,0,1,3.3-.8h26.9a6.32,6.32,0,0,1,3.2.8,4.79,4.79,0,0,1,1.8,2.5l8.7,22.7c1.3,3.5,2.3,6.5,3,9.1a31.13,31.13,0,0,1,.9,6.9v26.4a4.25,4.25,0,0,1-.8,2.8,3.77,3.77,0,0,1-2.8.9h-15.1a4.48,4.48,0,0,1-3-.9,3.79,3.79,0,0,1-1-2.8v-14h-17.7v14Zm5.7-47.4-4.7,15.2h15.7l-4.7-15.2a4.89,4.89,0,0,0-.8-1.3,1.5,1.5,0,0,0-1.1-.4h-2.5a1.16,1.16,0,0,0-1,.4A2.18,2.18,0,0,0,180.21,263.45Z" />
		<path fill="none" class="n2_3" stroke="#080808" stroke-width="5" stroke-linecap="round" stroke-linejoin="round" d="M230.11,314.45a3.22,3.22,0,0,1-3.7-3.7v-11.9a3.22,3.22,0,0,1,3.7-3.7H240v-33.6h-9.9a4.25,4.25,0,0,1-2.8-.8,3.77,3.77,0,0,1-.9-2.8v-11.9a3.1,3.1,0,0,1,3.7-3.6h42.6a4.25,4.25,0,0,1,2.8.8,3.76,3.76,0,0,1,.8,2.8v12.1a4.25,4.25,0,0,1-.8,2.8,3.76,3.76,0,0,1-2.8.8H263v33.6h9.7a3.1,3.1,0,0,1,3.6,3.7V311a4.25,4.25,0,0,1-.8,2.8,3.77,3.77,0,0,1-2.8.9h-42.6Z" />
		<path fill="none" class="n2_4" stroke="#080808" stroke-width="5" stroke-linecap="round" stroke-linejoin="round" d="M326.91,314.45h-33.7a3.1,3.1,0,0,1-3.6-3.7v-64.7a4.25,4.25,0,0,1,.8-2.8,3.76,3.76,0,0,1,2.8-.8h33.7c8.3,0,14.5,1.7,18.5,5s6,8.5,6,15.4v31.2c0,6.9-2,12.1-6,15.4S335.21,314.45,326.91,314.45Zm-14.6-52.9v34h11.9a4.49,4.49,0,0,0,3.5-1.2,5,5,0,0,0,1.2-3.7v-24.3a4.59,4.59,0,0,0-1.2-3.6,4.79,4.79,0,0,0-3.5-1.2Z" />
	</g>
	<style>

		.top {
			opacity: 0;
			animation: fadeTop 5.1s ease-out .5s forwards;
        }

        .center {
			opacity: 0;
			transform-origin: center;
			transform:rotateY(90deg);
			animation: fadeCenter .5s linear forwards;
        }

        .down {
			opacity: 0;
			animation: fadeBottom 5.1s ease-out .5s forwards;
        }

        .n1_1, .n1_2, .n1_3, .n1_4, .n1_5, .n1_6 {
			stroke-dasharray: 834 836;
			stroke-dashoffset: 835;
		}
		.n1_1{
			animation: mDrawLine 5s ease-out 1.5s forwards;
		}
		.n1_2{
			animation: drawLineWithFadeOut 5s ease-out 1.55s forwards;
		}
		.n1_3{
			animation: drawLineWithFadeOut 5s ease-out 1.6s forwards;
		}
		.n1_4{
			animation: drawLineWithFadeOut 5s ease-out 1.65s forwards;
		}
		.n1_5{
			animation: drawLineWithFadeOut 5s ease-out 1.7s forwards;
		}
		.n1_6{
			animation: drawLineWithFadeOut 5s ease-out 1.75s forwards;
		}

        .n2_1, .n2_2, .n2_3, .n2_4 {
			stroke-dasharray: 834 836;
			stroke-dashoffset: 835;
        }
		.n2_1{
			animation: sDrawLine 5s ease-out 1.7s forwards;
		}
		.n2_2{
			animation: drawLineWithFadeOut 5s ease-out 1.75s forwards;
		}
		.n2_3{
			animation: drawLineWithFadeOut 5s ease-out 1.8s forwards;
		}
		.n2_4{
			animation: drawLineWithFadeOut 5s ease-out 1.85s forwards;
		}

        @keyframes mDrawLine {
			20% {
				stroke-dashoffset: 0;
				opacity:1;
				transform:translateX(0px);
			}

			50% {
				stroke-dashoffset: 0;
				opacity:1;
				transform:translateX(0px);
			}

			55%{
				stroke-dashoffset: 0;
				opacity:1;
				transform:translateX(0px);
			}

			70%{
				stroke-dashoffset: 0;
				opacity:1;
				transform:translateX(0px);
			}

			80% {
				stroke-dashoffset: 0;
				opacity:1;
				transform:scale(2.3)translate(12px, -84px);
			}

			100% {
				stroke-dashoffset: 0;
				opacity:1;
				transform:scale(2.3)translate(12px, -84px);

			}
		}
		
		@keyframes sDrawLine {
			20% {
				stroke-dashoffset: 0;
				opacity:1;
				transform:translateX(0px);
			}

			50% {
				stroke-dashoffset: 0;
				opacity:1;
				transform:translateX(0px);
			}

			55%{
				stroke-dashoffset: 0;
				opacity:1;
				transform:translateX(0px);
			}

			66%{
				stroke-dashoffset: 0;
				opacity:1;
				transform:translateX(0px);
			}

			75% {
				stroke-dashoffset: 0;
				opacity:1;
				transform:scale(2.2)translate(32px,-173px);
			}

			100% {
				stroke-dashoffset: 0;
				opacity:1;
				transform:scale(2.2)translate(32px,-173px);

			}
		}
		
		@keyframes drawLineWithFadeOut {
			20% {
				stroke-dashoffset: 0;
				opacity:1;
				transform:translateX(0px);
			}

			50% {
				stroke-dashoffset: 0;
				opacity:1;
				transform:translateX(0px);
			}

			55%{
				stroke-dashoffset: 0;
				opacity:0;
				transform:translateX(10px);
			}

			100% {
				stroke-dashoffset: 0;
				opacity:0;
				transform:translateX(10px);
			}
		}

        @keyframes fadeTop {
			0% {
				opacity: 0;
				transform: translateY(40px)
        	}

			10% {
				opacity: 1;
				transform: translateY(0px)
			}

			95%{
				opacity: 1;
				transform: translateY(0px)
			}
			100%{
				opacity: 1;
				transform: translateY(17px)
			}
        }

        @keyframes fadeCenter {
			0% {
				transform: rotateX(90deg);
				opacity: 0;
			}

			100% {
				transform: rotateX(0deg);
				opacity: 1
			}
        }

        @keyframes fadeBottom {
			0% {
				opacity: 0;
				transform: translateY(-40px)
        	}

			10% {
				opacity: 1;
				transform: translateY(0px)
			}

			95%{
				opacity: 1;
				transform: translateY(0px)
			}
			100%{
				opacity: 1;
				transform: translateY(-17px)
			}
        }
		</style>
</svg>