<?xml version="1.0" encoding="utf-8"?>
<!-- Generator: Adobe Illustrator 24.0.0, SVG Export Plug-In . SVG Version: 6.00 Build 0)  -->
<svg version="1.1" id="Layer_1" xmlns="http://www.w3.org/2000/svg" xmlns:xlink="http://www.w3.org/1999/xlink" x="0px" y="0px"
	 viewBox="0 0 425.3 116" style="enable-background:new 0 0 425.3 116;" xml:space="preserve">
<style type="text/css">
	.st0{fill:#2D2D2D;}
	.st1{fill:rgb(37, 138, 205);}
</style>
<g>
	<path class="st0" d="M47.2,60.8L77.7,33h8.9v75H66.8V69.5L47.2,87.4L27.5,69.6V108H7.7V33h8.9L47.2,60.8z"/>
	<path class="st0" d="M101.7,33h46.6v16.3h-26.9v12.2h23.8v16.6h-23.8v13.8h26.9V108h-46.6C101.7,108,101.7,33,101.7,33z"/>
	<path class="st0" d="M162.4,33h27.8c20.7,0,37.5,16.8,37.5,37.5S210.9,108,190.2,108h-27.8V33z M182,88.4h8.3
		c9.8,0,17.8-8,17.8-17.8c0-9.7-8-17.7-17.8-17.7H182V88.4z"/>
	<path class="st0" d="M313.8,33l-34.2,34.3l40.6,40.7h-27.8l-26.7-26.6l-4.7,4.8V108h-19.7V33H261v25.3L286.2,33H313.8z"/>
	<path class="st0" d="M327,33h19.7v75H327V33z"/>
	<path class="st0" d="M360.2,32.9h59.1v19.6h-19.9V108h-19.7V52.5h-19.5V32.9z"/>
</g>
<g>
	<g id="Layer_1-2">
		<path class="st1" d="M65.3,16.8h20c0.9,0,1.6,0.7,1.6,1.6v41.9c0,0.9-0.7,1.6-1.6,1.6h-20c-0.9,0-1.6-0.7-1.6-1.6V18.3
			C63.6,17.5,64.4,16.8,65.3,16.8z"/>
		<path class="st1" d="M51.6,48.9V29.6c0-0.9,0.7-1.6,1.6-1.6h43.5c0.9,0,1.6,0.7,1.6,1.6v19.3c0,0.9-0.7,1.6-1.6,1.6H53.4
			C52.3,50.5,51.6,49.8,51.6,48.9z"/>
	</g>
</g>
</svg>
