<?xml version="1.0" encoding="utf-8"?>
<!-- Generator: Adobe Illustrator 23.0.2, SVG Export Plug-In . SVG Version: 6.00 Build 0)  -->
<svg version="1.1" id="Layer_1" xmlns="http://www.w3.org/2000/svg" xmlns:xlink="http://www.w3.org/1999/xlink" x="0px" y="0px"
	 viewBox="0 0 460 440" style="enable-background:new 0 0 460 440;" xml:space="preserve">
<style type="text/css">
	.st0{fill:#0C2B36;}
	.st1{fill:#FFFFFF;}
</style>
<title>Asset 3</title>
<g>
	<g id="Layer_1-2">
		<path id="logo" class="st0" d="M28.4,100.3c-3.8,2-13.8,7.2-20.8,17.4c-4.8,7-7.4,15.3-7.6,23.8v167.4c0,17,10.8,32.6,28.4,41.1
			l173.2,83.7c18,8.5,38.8,8.5,56.8,0L431.6,350c17.6-8.5,28.4-24.2,28.4-41.1V141.5c-0.2-8.5-2.8-16.7-7.6-23.8
			c-7-10.2-17-15.4-20.8-17.4C373.8,69.5,318.1,35.8,258.8,7.1c-8.7-4.5-18.3-6.9-28.1-7.1c-14.1,0-24.7,5.2-29.1,7.3
			C142.4,36.3,86.3,69.5,28.4,100.3z"/>
		<path class="st1" d="M111.4,302.9H76.1c-3,0-5.2-0.6-6.5-1.9s-2-3.4-2-6.3V146.4c0-2.9,0.7-5,2-6.3c1.3-1.3,3.5-2,6.5-2h38.2
			c2.2-0.1,4.4,0.5,6.3,1.6c1.9,1.4,3.5,3.2,4.6,5.3l21.3,37.3c0.6,1.1,1.2,2.1,2,3c0.6,0.6,1.4,1,2.3,0.9h2.1
			c0.8,0,1.7-0.3,2.3-0.9c0.8-0.9,1.4-1.9,2-3l21.1-37.3c1.1-2.1,2.7-3.9,4.6-5.3c1.9-1.1,4.1-1.7,6.3-1.6h38.4c3,0,5.2,0.7,6.5,2
			c1.3,1.3,2,3.4,2,6.3v148.2c0,2.9-0.7,5-2,6.3c-1.3,1.3-3.5,1.9-6.5,1.9h-36.5c-3,0-5.2-0.6-6.5-1.9s-2-3.4-2-6.3v-80.5l-14,24.9
			c-1.1,2.3-2.9,4.2-5.1,5.6c-2.3,1.2-4.9,1.8-7.5,1.7h-9.5c-2.6,0.1-5.2-0.5-7.5-1.7c-2.2-1.4-3.9-3.3-5.1-5.6l-14-24.9v80.5
			c0,2.9-0.7,5-2,6.3S114.5,302.9,111.4,302.9z"/>
		<path class="st1" d="M348,302.9h-74.9c-3,0-5.2-0.6-6.5-1.9s-2-3.4-2-6.3v-26.8c0-2.9,0.7-5,2-6.3c1.3-1.3,3.5-2,6.5-1.9h63.8
			c1.8,0.1,3.5-0.6,4.6-2c1-1.3,1.6-3,1.5-4.7c0-2.6-0.5-4.5-1.5-5.7c-1.2-1.3-2.9-2-4.6-2.1l-35.5-4.8c-11.1-1.5-19.9-5-26.7-10.5
			c-6.7-5.5-10.1-14.6-10.1-27.4v-24c0-13,4.3-22.9,13-29.9c8.7-6.9,20.7-10.4,36-10.4H380c3,0,5.2,0.6,6.5,2s2,3.4,2,6.3v27.1
			c0,2.9-0.7,5-2,6.3s-3.5,1.9-6.5,1.9h-55.3c-1.8-0.1-3.5,0.6-4.7,1.9c-1.1,1.4-1.7,3.1-1.7,4.9c0,1.8,0.5,3.6,1.7,5
			c1.2,1.4,2.9,2.2,4.7,2.3l35.3,4.6c11.1,1.5,20,5,26.8,10.5c6.8,5.5,10.2,14.7,10.1,27.5v24c0,13-4.4,22.9-13.2,29.9
			C375.1,299.4,363.1,302.9,348,302.9z"/>
	</g>
</g>
</svg>
