<?xml version="1.0" encoding="utf-8"?>
<!-- Generator: Adobe Illustrator 16.0.0, SVG Export Plug-In . SVG Version: 6.00 Build 0) -->
<!DOCTYPE svg PUBLIC "-//W3C//DTD SVG 1.1//EN" "http://www.w3.org/Graphics/SVG/1.1/DTD/svg11.dtd">
<svg xmlns="http://www.w3.org/2000/svg" viewBox="0 0 437.41 439.95">
	<path fill="#fff" id="down" d="M0,320.19a29.78,29.78,0,0,0,16.07,27.26L208.8,437.73a23.11,23.11,0,0,0,19.8,0l192.73-90.28a35.06,35.06,0,0,0,16.07-27.26Z" />
	<rect fill="#fff" id="center" x="0.01" y="137.98" width="437.39" height="165.4" rx="2" />
	<path fill="#fff" id="top" d="M437.4,119.77A29.78,29.78,0,0,0,421.33,92.5L228.6,2.23a23.11,23.11,0,0,0-19.8,0L16.08,92.5A29.7,29.7,0,0,0,0,119.77Z" />
	<path fill="none" stroke="#080808" stroke-width="10" stroke-linecap="round" stroke-linejoin="round" d="M98.23,291.68H63.06c-3,0-5.15-.56-6.49-1.7s-2-3-2-5.5V154.88c0-2.53.66-4.36,2-5.5s3.5-1.7,6.49-1.7h38a12.62,12.62,0,0,1,6.25,1.4,14.06,14.06,0,0,1,4.6,4.6l21.24,32.6a16,16,0,0,0,2,2.6,3.06,3.06,0,0,0,2.24.8h2.13a3.06,3.06,0,0,0,2.24-.8,16,16,0,0,0,2-2.6l21-32.6a14.06,14.06,0,0,1,4.6-4.6,12.62,12.62,0,0,1,6.25-1.4h38.24c3,0,5.15.57,6.49,1.7s2,3,2,5.5v129.6q0,3.81-2,5.5c-1.34,1.14-3.51,1.7-6.49,1.7H177.52c-3,0-5.15-.56-6.49-1.7s-2-3-2-5.5v-70.4l-13.93,21.8a13,13,0,0,1-5.07,4.9,16.37,16.37,0,0,1-7.44,1.5h-9.44a16.32,16.32,0,0,1-7.43-1.5,12.94,12.94,0,0,1-5.07-4.9l-13.93-21.8v70.4q0,3.81-2,5.5C103.38,291.12,101.21,291.68,98.23,291.68Z" />
	<path fill="none" stroke="#080808" stroke-width="10" stroke-linecap="round" stroke-linejoin="round" d="M340.83,291.68H266.26c-3,0-5.16-.56-6.49-1.7s-2-3-2-5.5v-23.4q0-3.79,2-5.5c1.33-1.13,3.5-1.7,6.49-1.7h63.48a5.58,5.58,0,0,0,6.14-5.8q0-3.39-1.54-5a6.8,6.8,0,0,0-4.6-1.8l-35.4-4.2q-16.51-2-26.55-9.2t-10-24v-21q0-17,13-26.1t35.87-9.1h66.08c3,0,5.16.57,6.49,1.7s2,3,2,5.5v23.8q0,3.81-2,5.5c-1.33,1.14-3.5,1.7-6.49,1.7h-55a6.27,6.27,0,0,0-4.72,1.7,5.91,5.91,0,0,0-1.66,4.3,6.23,6.23,0,0,0,1.66,4.4,6.67,6.67,0,0,0,4.72,2l35.16,4q16.51,2,26.67,9.2t10.15,24v21q0,17-13.1,26.1T340.83,291.68Z" />
</svg>
