<svg xmlns="http://www.w3.org/2000/svg" viewBox="0 0 460 440"><defs><style>.cls-1{fill:#fff;}.cls-2{fill:none;stroke:#090909;stroke-linecap:round;stroke-linejoin:round;stroke-width:10px;}</style></defs><title>Asset 3</title><g id="Layer_2" data-name="Layer 2"><g id="Layer_1-2" data-name="Layer 1"><path id="logo" class="cls-1" d="M28.38,100.33c-3.81,2-13.77,7.24-20.77,17.39A43.67,43.67,0,0,0,0,141.47V308.82c0,17,10.82,32.65,28.38,41.14l173.24,83.68a66.5,66.5,0,0,0,56.76,0L431.62,350c17.56-8.49,28.38-24.17,28.38-41.14V141.47a43.65,43.65,0,0,0-7.61-23.75c-7-10.15-17-15.36-20.77-17.39C373.8,69.52,318.12,35.81,258.79,7.07A63.39,63.39,0,0,0,230.71,0C216.6,0,206,5.16,201.62,7.32,142.41,36.33,86.25,69.49,28.38,100.33Z"/><path class="cls-2" d="M111.45,302.87H76.14c-3,0-5.18-.65-6.52-1.94s-2-3.4-2-6.3V146.37q0-4.35,2-6.29c1.34-1.3,3.52-2,6.52-2H114.3a11.48,11.48,0,0,1,6.28,1.6A15.18,15.18,0,0,1,125.2,145l21.33,37.29a18.62,18.62,0,0,0,2,3,2.89,2.89,0,0,0,2.25.91h2.14a2.9,2.9,0,0,0,2.25-.91,18.62,18.62,0,0,0,2-3L178.29,145a15.18,15.18,0,0,1,4.62-5.27,11.46,11.46,0,0,1,6.28-1.6h38.39q4.5,0,6.52,2t2,6.29V294.63q0,4.35-2,6.3t-6.52,1.94h-36.5q-4.5,0-6.51-1.94t-2-6.3V214.09l-14,24.94a13.92,13.92,0,0,1-5.1,5.61,14.73,14.73,0,0,1-7.46,1.72h-9.48a14.77,14.77,0,0,1-7.47-1.72A13.9,13.9,0,0,1,134,239l-14-24.94v80.54q0,4.35-2,6.3T111.45,302.87Z"/><path class="cls-2" d="M348,302.87H273.09q-4.51,0-6.52-1.94t-2-6.3V267.86q0-4.33,2-6.29t6.52-1.94h63.75a5.54,5.54,0,0,0,4.62-1.95A7.29,7.29,0,0,0,343,253q0-3.88-1.54-5.72a6.39,6.39,0,0,0-4.62-2.06l-35.55-4.8q-16.59-2.29-26.66-10.53t-10.08-27.45v-24q0-19.44,13-29.86t36-10.41H380c3,0,5.18.65,6.52,2s2,3.39,2,6.29V173.6c0,2.9-.67,5-2,6.29s-3.52,1.94-6.52,1.94H324.75a5.89,5.89,0,0,0-4.74,1.95,7.31,7.31,0,0,0-1.66,4.92,7.74,7.74,0,0,0,1.66,5,6.4,6.4,0,0,0,4.74,2.29l35.31,4.57q16.59,2.29,26.79,10.53T397,238.58v24q0,19.45-13.16,29.86T348,302.87Z"/></g></g></svg>